<svg width="29" height="29" viewBox="0 0 29 29" fill="none" xmlns="http://www.w3.org/2000/svg">
<path d="M2.41667 29C1.77222 29 1.20833 28.7583 0.725 28.275C0.241667 27.7917 0 27.2278 0 26.5833V2.41667C0 1.77222 0.241667 1.20833 0.725 0.725C1.20833 0.241667 1.77222 0 2.41667 0H13.6542V2.41667H2.41667V26.5833H26.5833V15.3458H29V26.5833C29 27.2278 28.7583 27.7917 28.275 28.275C27.7917 28.7583 27.2278 29 26.5833 29H2.41667ZM10.5528 20.1792L8.86111 18.4472L24.8917 2.41667H16.0708V0H29V12.9292H26.5833V4.14861L10.5528 20.1792Z" fill="white"/>
</svg>
