<svg width="58" height="29" viewBox="0 0 58 29" fill="none" xmlns="http://www.w3.org/2000/svg">
<rect width="58" height="29" rx="5" fill="#3366FF"/>
<path fill-rule="evenodd" clip-rule="evenodd" d="M44.2937 9.66309H49V7.21404H36.6946V9.66309H41.338V22.786H44.2937V9.66309ZM12 7.21404V22.786H17.5658C18.4043 22.786 19.1589 22.6898 19.8298 22.4973C20.1694 22.4017 20.4988 22.2716 20.813 22.109C21.0702 21.9754 21.3132 21.8152 21.5383 21.6311C22.005 21.248 22.3752 20.7566 22.6179 20.1979C22.8695 19.6275 22.9953 18.968 22.9953 18.2193C22.9953 17.8271 22.9446 17.4474 22.8433 17.0803C22.742 16.7131 22.5865 16.3726 22.3768 16.059C22.1699 15.7622 21.9168 15.5021 21.6274 15.2888C21.4972 15.1933 21.359 15.1096 21.2144 15.0389C20.9883 14.9266 20.7259 14.8281 20.4272 14.7434V14.7327C20.6225 14.658 20.8113 14.5666 20.9916 14.4596C21.0401 14.4306 21.0878 14.4005 21.1348 14.3691C21.3028 14.2573 21.4614 14.1316 21.6092 13.9932C21.6421 13.9623 21.6744 13.9307 21.706 13.8984C22.0117 13.5874 22.2493 13.2137 22.403 12.8021C22.5618 12.3767 22.6451 11.9258 22.6492 11.4706C22.6508 11.1589 22.6238 10.8478 22.5685 10.5412C22.5086 10.2068 22.4035 9.88253 22.2562 9.57766C21.9941 9.04292 21.6221 8.60083 21.1399 8.25139C20.6578 7.90196 20.0761 7.64174 19.3947 7.47075C18.7135 7.29961 17.9571 7.21404 17.1255 7.21404H12ZM35.5522 16.1444V13.8771C35.5535 13.3882 35.52 12.8998 35.452 12.4157C35.4262 12.2352 35.3949 12.0556 35.3582 11.8771C35.27 11.4423 35.1469 11.0157 34.9902 10.6014C34.9312 10.4469 34.8669 10.2945 34.7974 10.1445C34.5795 9.68996 34.3104 9.26281 33.9957 8.87171C33.6864 8.48819 33.3203 8.15624 32.9108 7.88779C32.5402 7.63333 32.1369 7.4324 31.7123 7.2907C31.6492 7.2693 31.5857 7.24908 31.5219 7.23002C31.1078 7.10801 30.6815 7.03452 30.2511 7.01099C30.1246 7.00362 29.9979 6.99997 29.8711 7.00004C29.5232 6.99883 29.1758 7.02821 28.8328 7.08787C28.6384 7.12214 28.4461 7.16785 28.2569 7.22477C27.7609 7.37444 27.3136 7.5883 26.9152 7.86633C26.5092 8.15233 26.1472 8.4984 25.8411 8.89317C25.5301 9.2924 25.2663 9.738 25.0496 10.23C24.8775 10.6336 24.7398 11.0516 24.6379 11.4793C24.6019 11.6289 24.5696 11.7793 24.5413 11.9306C24.4531 12.4058 24.3989 12.887 24.3792 13.3703C24.3719 13.5391 24.3682 13.7081 24.3683 13.8771V16.1444C24.3683 16.7862 24.4189 17.3958 24.5202 17.9734C24.5864 18.3562 24.6786 18.734 24.7961 19.1038C24.8472 19.2637 24.9038 19.4217 24.9657 19.5776C25.1278 19.9817 25.3301 20.3678 25.5695 20.7297C25.6344 20.8272 25.7022 20.9227 25.7728 21.016C26.0942 21.4403 26.4576 21.8022 26.8629 22.1015C27.2784 22.3871 27.7333 22.6081 28.2124 22.7573C28.2203 22.7598 28.2282 22.7623 28.2361 22.7648C28.595 22.8751 28.9644 22.9463 29.3381 22.977C29.5189 22.9925 29.7003 23.0002 29.8817 23C30.2427 23.0013 30.6031 22.9698 30.9586 22.9058C31.1237 22.8758 31.2872 22.8376 31.4487 22.7915C31.8603 22.6753 32.2572 22.5102 32.6311 22.2996C32.6829 22.2702 32.7342 22.2399 32.785 22.2087C33.2322 21.9235 33.6305 21.5669 33.98 21.1391C34.331 20.7086 34.6269 20.2342 34.8603 19.7274C35.0396 19.3127 35.1829 18.8828 35.2886 18.4425C35.3199 18.3135 35.3484 18.1838 35.374 18.0535C35.4705 17.5574 35.5277 17.0542 35.5449 16.5487C35.5498 16.414 35.5523 16.2792 35.5522 16.1444ZM32.565 13.8557V16.1444C32.5654 16.4653 32.5511 16.786 32.5222 17.1055C32.5176 17.1559 32.5126 17.2063 32.5072 17.2567C32.4868 17.4492 32.459 17.6408 32.4241 17.8312C32.3989 17.9688 32.369 18.1054 32.3344 18.2408C32.2822 18.4486 32.2165 18.6526 32.1378 18.8515C32.0805 18.9957 32.0149 19.1364 31.9414 19.2727C31.8396 19.4628 31.7159 19.6398 31.573 19.7999C31.5001 19.881 31.4218 19.9568 31.3386 20.0268C31.15 20.1908 30.9334 20.3156 30.6888 20.4012C30.5142 20.4614 30.3332 20.5003 30.1496 20.517C30.0605 20.5255 29.9711 20.5296 29.8817 20.5295C29.5741 20.5295 29.2999 20.4832 29.0589 20.3904C28.8219 20.3002 28.6033 20.166 28.4142 19.9946C28.2985 19.8835 28.1949 19.7599 28.1053 19.626C28.0228 19.5032 27.9491 19.3744 27.8849 19.2407C27.7738 19.0094 27.6844 18.7679 27.6178 18.5194C27.5899 18.4167 27.5654 18.313 27.5442 18.2086C27.4991 18.0136 27.4636 17.8165 27.4377 17.6179C27.4211 17.4908 27.4077 17.3632 27.3976 17.2354C27.3735 16.931 27.3599 16.6259 27.3566 16.3205C27.3559 16.2618 27.3555 16.2031 27.3555 16.1444V13.8557C27.3552 13.566 27.3641 13.2765 27.3821 12.9874C27.3879 12.8953 27.3948 12.8032 27.4027 12.7112C27.4194 12.5149 27.4432 12.3192 27.474 12.1246C27.4963 11.9842 27.5233 11.8446 27.5547 11.706C27.5987 11.5097 27.6554 11.3166 27.7245 11.128C27.7839 10.9661 27.855 10.8089 27.9372 10.6577C28.0446 10.4596 28.1759 10.2759 28.3279 10.111C28.3945 10.0393 28.4653 9.97189 28.54 9.90907C28.7146 9.7737 28.912 9.67032 29.1323 9.59891C29.269 9.55534 29.4095 9.52548 29.5519 9.50976C29.6579 9.49774 29.7645 9.49182 29.8711 9.49202C30.0207 9.49148 30.17 9.50327 30.3176 9.52729C30.4311 9.54583 30.5429 9.57337 30.6521 9.60964C30.8861 9.68806 31.0974 9.7986 31.2862 9.94127C31.4546 10.079 31.6044 10.2388 31.7316 10.4166C31.7938 10.5027 31.8516 10.5922 31.9046 10.6845C32.023 10.8915 32.1229 11.1089 32.2032 11.3341C32.2486 11.4599 32.2888 11.5875 32.3239 11.7166C32.4077 12.0232 32.4689 12.3566 32.5072 12.7167C32.5364 12.9938 32.5544 13.2721 32.5611 13.5508C32.5637 13.6524 32.565 13.754 32.565 13.8557ZM14.9559 20.3584V15.9199H17.7021C17.8695 15.9222 18.0365 15.9345 18.2025 15.9567C18.3712 15.9799 18.528 16.0138 18.6728 16.0583C18.7058 16.0685 18.7386 16.0794 18.7711 16.091C18.9118 16.1401 19.0469 16.2044 19.1743 16.2826C19.2953 16.3572 19.4064 16.4474 19.5048 16.5509C19.6779 16.7288 19.8105 16.9434 19.893 17.1796C19.9021 17.2051 19.9108 17.2308 19.9189 17.2567C19.9696 17.4206 20.005 17.5891 20.0248 17.7598C20.0418 17.9052 20.0502 18.0515 20.0499 18.1979C20.0508 18.3777 20.0324 18.5572 19.9951 18.733C19.9676 18.8613 19.9279 18.9865 19.8769 19.1071C19.7629 19.3761 19.5888 19.6141 19.3685 19.8021C19.2486 19.9022 19.1178 19.9878 18.9785 20.0571C18.859 20.1168 18.7354 20.1675 18.6086 20.2086C18.4291 20.2667 18.2446 20.3072 18.0576 20.3298C17.8979 20.3493 17.7372 20.3589 17.5763 20.3584H14.9559ZM17.1466 13.7488H14.9559V9.66309H17.136C17.5611 9.66951 17.9372 9.71303 18.2643 9.79363C18.3024 9.80298 18.3403 9.81299 18.3781 9.82364C18.731 9.92338 19.0123 10.0838 19.2219 10.3049C19.3547 10.4356 19.4608 10.592 19.534 10.7648C19.5522 10.8069 19.5686 10.8498 19.5834 10.8932C19.6252 11.0175 19.6554 11.1454 19.6738 11.2754C19.694 11.4127 19.704 11.5597 19.704 11.7166C19.7046 11.8591 19.6928 12.0014 19.6686 12.1417C19.6463 12.2708 19.6107 12.3972 19.5624 12.5187C19.4681 12.7541 19.3336 12.9538 19.159 13.1177C19.0317 13.2416 18.8866 13.345 18.7288 13.4244C18.6011 13.4892 18.4679 13.5423 18.3308 13.583C18.1498 13.6368 17.965 13.6765 17.7781 13.7019C17.5806 13.7295 17.3701 13.7451 17.1466 13.7488Z" fill="white" stroke="white" stroke-width="0.2" stroke-linecap="round"/>
</svg>
