<svg width="68" height="29" viewBox="0 0 68 29" fill="none" xmlns="http://www.w3.org/2000/svg">
<rect width="68" height="29" rx="5" fill="white"/>
<path d="M11.259 16.8126L7.2599 13.7021C7.12044 13.5937 6.91791 13.6286 6.82284 13.7775L5.14176 16.4112C5.06067 16.5383 5.08643 16.7058 5.20194 16.8026L11.7558 22.2954C11.8883 22.4063 12.0868 22.3828 12.1896 22.244L21.8124 9.25332C21.9145 9.11549 21.8804 8.92028 21.7377 8.82513L19.2361 7.15742C19.1037 7.0691 18.9253 7.09966 18.8297 7.22704L11.6832 16.7558C11.5825 16.8899 11.3914 16.9155 11.259 16.8126Z" fill="#3366FF"/>
<path fill-rule="evenodd" clip-rule="evenodd" d="M58.2937 9.66309H63V7.21404H50.6946V9.66309H55.338V22.786H58.2937V9.66309ZM26 7.21404V22.786H31.5658C32.4043 22.786 33.1589 22.6898 33.8298 22.4973C34.1694 22.4017 34.4988 22.2716 34.813 22.109C35.0702 21.9754 35.3132 21.8152 35.5383 21.6311C36.005 21.248 36.3752 20.7566 36.6179 20.1979C36.8695 19.6275 36.9953 18.968 36.9953 18.2193C36.9953 17.8271 36.9446 17.4474 36.8433 17.0803C36.742 16.7131 36.5865 16.3726 36.3768 16.059C36.1699 15.7622 35.9168 15.5021 35.6274 15.2888C35.4972 15.1933 35.359 15.1096 35.2144 15.0389C34.9883 14.9266 34.7259 14.8281 34.4272 14.7434V14.7327C34.6225 14.658 34.8113 14.5666 34.9916 14.4596C35.0401 14.4306 35.0878 14.4005 35.1348 14.3691C35.3028 14.2573 35.4614 14.1316 35.6092 13.9932C35.6421 13.9623 35.6744 13.9307 35.706 13.8984C36.0117 13.5874 36.2493 13.2137 36.403 12.8021C36.5618 12.3767 36.6451 11.9258 36.6492 11.4706C36.6508 11.1589 36.6238 10.8478 36.5685 10.5412C36.5086 10.2068 36.4035 9.88253 36.2562 9.57766C35.9941 9.04292 35.6221 8.60083 35.1399 8.25139C34.6578 7.90196 34.0761 7.64174 33.3947 7.47075C32.7135 7.29961 31.9571 7.21404 31.1255 7.21404H26ZM49.5522 16.1444V13.8771C49.5535 13.3882 49.52 12.8998 49.452 12.4157C49.4262 12.2352 49.3949 12.0556 49.3582 11.8771C49.27 11.4423 49.1469 11.0157 48.9902 10.6014C48.9312 10.4469 48.8669 10.2945 48.7974 10.1445C48.5795 9.68996 48.3104 9.26281 47.9957 8.87171C47.6864 8.48819 47.3203 8.15624 46.9108 7.88779C46.5402 7.63333 46.1369 7.4324 45.7123 7.2907C45.6492 7.2693 45.5857 7.24908 45.5219 7.23002C45.1078 7.10801 44.6815 7.03452 44.2511 7.01099C44.1246 7.00362 43.9979 6.99997 43.8711 7.00004C43.5232 6.99883 43.1758 7.02821 42.8328 7.08787C42.6384 7.12214 42.4461 7.16785 42.2569 7.22477C41.7609 7.37444 41.3136 7.5883 40.9152 7.86633C40.5092 8.15233 40.1472 8.4984 39.8411 8.89317C39.5301 9.2924 39.2663 9.738 39.0496 10.23C38.8775 10.6336 38.7398 11.0516 38.6379 11.4793C38.6019 11.6289 38.5696 11.7793 38.5413 11.9306C38.4531 12.4058 38.3989 12.887 38.3792 13.3703C38.3719 13.5391 38.3682 13.7081 38.3683 13.8771V16.1444C38.3683 16.7862 38.4189 17.3958 38.5202 17.9734C38.5864 18.3562 38.6786 18.734 38.7961 19.1038C38.8472 19.2637 38.9038 19.4217 38.9657 19.5776C39.1278 19.9817 39.3301 20.3678 39.5695 20.7297C39.6344 20.8272 39.7022 20.9227 39.7728 21.016C40.0942 21.4403 40.4576 21.8022 40.8629 22.1015C41.2784 22.3871 41.7333 22.6081 42.2124 22.7573C42.2203 22.7598 42.2282 22.7623 42.2361 22.7648C42.595 22.8751 42.9644 22.9463 43.3381 22.977C43.5189 22.9925 43.7003 23.0002 43.8817 23C44.2427 23.0013 44.6031 22.9698 44.9586 22.9058C45.1237 22.8758 45.2872 22.8376 45.4487 22.7915C45.8603 22.6753 46.2572 22.5102 46.6311 22.2996C46.6829 22.2702 46.7342 22.2399 46.785 22.2087C47.2322 21.9235 47.6305 21.5669 47.98 21.1391C48.331 20.7086 48.6269 20.2342 48.8603 19.7274C49.0396 19.3127 49.1829 18.8828 49.2886 18.4425C49.3199 18.3135 49.3484 18.1838 49.374 18.0535C49.4705 17.5574 49.5277 17.0542 49.5449 16.5487C49.5498 16.414 49.5523 16.2792 49.5522 16.1444ZM46.565 13.8557V16.1444C46.5654 16.4653 46.5511 16.786 46.5222 17.1055C46.5176 17.1559 46.5126 17.2063 46.5072 17.2567C46.4868 17.4492 46.459 17.6408 46.4241 17.8312C46.3989 17.9688 46.369 18.1054 46.3344 18.2408C46.2822 18.4486 46.2165 18.6526 46.1378 18.8515C46.0805 18.9957 46.0149 19.1364 45.9414 19.2727C45.8396 19.4628 45.7159 19.6398 45.573 19.7999C45.5001 19.881 45.4218 19.9568 45.3386 20.0268C45.15 20.1908 44.9334 20.3156 44.6888 20.4012C44.5142 20.4614 44.3332 20.5003 44.1496 20.517C44.0605 20.5255 43.9711 20.5296 43.8817 20.5295C43.5741 20.5295 43.2999 20.4832 43.0589 20.3904C42.8219 20.3002 42.6033 20.166 42.4142 19.9946C42.2985 19.8835 42.1949 19.7599 42.1053 19.626C42.0228 19.5032 41.9491 19.3744 41.8849 19.2407C41.7738 19.0094 41.6844 18.7679 41.6178 18.5194C41.5899 18.4167 41.5654 18.313 41.5442 18.2086C41.4991 18.0136 41.4636 17.8165 41.4377 17.6179C41.4211 17.4908 41.4077 17.3632 41.3976 17.2354C41.3735 16.931 41.3599 16.6259 41.3566 16.3205C41.3559 16.2618 41.3555 16.2031 41.3555 16.1444V13.8557C41.3552 13.566 41.3641 13.2765 41.3821 12.9874C41.3879 12.8953 41.3948 12.8032 41.4027 12.7112C41.4194 12.5149 41.4432 12.3192 41.474 12.1246C41.4963 11.9842 41.5233 11.8446 41.5547 11.706C41.5987 11.5097 41.6554 11.3166 41.7245 11.128C41.7839 10.9661 41.855 10.8089 41.9372 10.6577C42.0446 10.4596 42.1759 10.2759 42.3279 10.111C42.3945 10.0393 42.4653 9.97189 42.54 9.90907C42.7146 9.7737 42.912 9.67032 43.1323 9.59891C43.269 9.55534 43.4095 9.52548 43.5519 9.50976C43.6579 9.49774 43.7645 9.49182 43.8711 9.49202C44.0207 9.49148 44.17 9.50327 44.3176 9.52729C44.4311 9.54583 44.5429 9.57337 44.6521 9.60964C44.8861 9.68806 45.0974 9.7986 45.2862 9.94127C45.4546 10.079 45.6044 10.2388 45.7316 10.4166C45.7938 10.5027 45.8516 10.5922 45.9046 10.6845C46.023 10.8915 46.1229 11.1089 46.2032 11.3341C46.2486 11.4599 46.2888 11.5875 46.3239 11.7166C46.4077 12.0232 46.4689 12.3566 46.5072 12.7167C46.5364 12.9938 46.5544 13.2721 46.5611 13.5508C46.5637 13.6524 46.565 13.754 46.565 13.8557ZM28.9559 20.3584V15.9199H31.7021C31.8695 15.9222 32.0365 15.9345 32.2025 15.9567C32.3712 15.9799 32.528 16.0138 32.6728 16.0583C32.7058 16.0685 32.7386 16.0794 32.7711 16.091C32.9118 16.1401 33.0469 16.2044 33.1743 16.2826C33.2953 16.3572 33.4064 16.4474 33.5048 16.5509C33.6779 16.7288 33.8105 16.9434 33.893 17.1796C33.9021 17.2051 33.9108 17.2308 33.9189 17.2567C33.9696 17.4206 34.005 17.5891 34.0248 17.7598C34.0418 17.9052 34.0502 18.0515 34.0499 18.1979C34.0508 18.3777 34.0324 18.5572 33.9951 18.733C33.9676 18.8613 33.9279 18.9865 33.8769 19.1071C33.7629 19.3761 33.5888 19.6141 33.3685 19.8021C33.2486 19.9022 33.1178 19.9878 32.9785 20.0571C32.859 20.1168 32.7354 20.1675 32.6086 20.2086C32.4291 20.2667 32.2446 20.3072 32.0576 20.3298C31.8979 20.3493 31.7372 20.3589 31.5763 20.3584H28.9559ZM31.1466 13.7488H28.9559V9.66309H31.136C31.5611 9.66951 31.9372 9.71303 32.2643 9.79363C32.3024 9.80298 32.3403 9.81299 32.3781 9.82364C32.731 9.92338 33.0123 10.0838 33.2219 10.3049C33.3547 10.4356 33.4608 10.592 33.534 10.7648C33.5522 10.8069 33.5686 10.8498 33.5834 10.8932C33.6252 11.0175 33.6554 11.1454 33.6738 11.2754C33.694 11.4127 33.704 11.5597 33.704 11.7166C33.7046 11.8591 33.6928 12.0014 33.6686 12.1417C33.6463 12.2708 33.6107 12.3972 33.5624 12.5187C33.4681 12.7541 33.3336 12.9538 33.159 13.1177C33.0317 13.2416 32.8866 13.345 32.7288 13.4244C32.6011 13.4892 32.4679 13.5423 32.3308 13.583C32.1498 13.6368 31.965 13.6765 31.7781 13.7019C31.5806 13.7295 31.3701 13.7451 31.1466 13.7488Z" fill="#3366FF" stroke="#3366FF" stroke-width="0.2" stroke-linecap="round"/>
</svg>
